<?xml version="1.0" encoding="UTF-8" standalone="no"?>
<!-- Created with Inkscape (http://www.inkscape.org/) -->

<svg
   width="317.50003mm"
   height="190.52136mm"
   viewBox="0 0 317.50003 190.52136"
   version="1.1"
   id="svg1"
   xml:space="preserve"
   inkscape:version="1.4 (86a8ad7, 2024-10-11)"
   sodipodi:docname="Ciudad de Corrientes.svg"
   xmlns:inkscape="http://www.inkscape.org/namespaces/inkscape"
   xmlns:sodipodi="http://sodipodi.sourceforge.net/DTD/sodipodi-0.dtd"
   xmlns="http://www.w3.org/2000/svg"
   xmlns:svg="http://www.w3.org/2000/svg"><sodipodi:namedview
     id="namedview1"
     pagecolor="#ffffff"
     bordercolor="#666666"
     borderopacity="1.0"
     inkscape:showpageshadow="2"
     inkscape:pageopacity="0.0"
     inkscape:pagecheckerboard="0"
     inkscape:deskcolor="#d1d1d1"
     inkscape:document-units="mm"
     inkscape:zoom="0.5"
     inkscape:cx="721"
     inkscape:cy="587"
     inkscape:window-width="1920"
     inkscape:window-height="1017"
     inkscape:window-x="-8"
     inkscape:window-y="-8"
     inkscape:window-maximized="1"
     inkscape:current-layer="layer1" /><defs
     id="defs1" /><g
     inkscape:label="Camada 1"
     inkscape:groupmode="layer"
     id="layer1"
     transform="translate(49.565166,-537.68176)"><g
       id="g75"><path
         id="rect2"
         style="fill:#ffffff;stroke-width:0.138755;stroke-linecap:square"
         d="M 56.268177,537.68176 H 162.10152 v 190.5 H 56.268177 Z" /><g
         id="g40"><path
           id="rect1"
           style="fill:#74acdf;stroke-width:0.138755;stroke-linecap:square"
           d="M -49.565166,537.68176 H 56.268177 v 190.5 H -49.565166 Z" /><path
           id="rect4"
           style="fill:#d52f13;stroke-width:0.0620532;stroke-linecap:square"
           d="M -7.2318277,537.68176 H 13.934838 v 190.5 H -7.2318277 Z" /></g><g
         id="g39"><path
           id="rect3"
           style="fill:#74acdf;stroke-width:0.138755;stroke-linecap:square"
           d="m 162.10152,537.68176 h 105.83334 v 190.5 H 162.10152 Z" /><path
           id="rect5"
           style="fill:#d52f13;stroke-width:0.0620532;stroke-linecap:square"
           d="m 204.43486,537.68176 h 21.16667 v 190.5 h -21.16667 z" /></g><g
         id="g38"><path
           id="path5"
           style="fill:#f6ad0e;stroke-width:0.138416;stroke-linecap:square"
           d="m 142.91921,611.10382 a 33.734375,33.734375 0 0 1 -33.73437,33.73438 33.734375,33.734375 0 0 1 -33.734378,-33.73438 33.734375,33.734375 0 0 1 33.734378,-33.73437 33.734375,33.734375 0 0 1 33.73437,33.73437 z" /><path
           id="rect6"
           style="fill:#542513;stroke-width:0.0115629;stroke-linecap:square"
           d="m 102.57037,584.64549 v 2.64583 h 5.29167 v 7.9375 H 90.002663 v 2.64584 h 17.859377 v 39.6875 h 2.64583 v -39.6875 h 17.85938 v -2.64584 h -17.85938 v -7.9375 h 5.29167 v -2.64583 z" /></g><g
         id="path22"><path
           style="fill:#542513;stroke-linecap:square"
           d="M 109.18485,726.85885 V 696.49454"
           id="path68" /><path
           id="path69"
           style="stroke-linecap:square"
           d="m 69.497334,651.00094 -5.291667,18.52083 h 3.968234 v 1.02527 56.318 1.31672 h 2.64635 v -1.31672 -56.318 -1.02527 h 3.96875 z m 79.374996,0 -5.29166,18.52083 h 3.96823 v 1.02527 56.318 1.31672 h 2.64635 v -1.31672 -56.318 -1.02527 h 3.96875 z m -66.145829,13.22917 -5.291667,18.52083 h 3.969267 v 0.78445 43.33741 1.30896 h 2.6448 v -1.30896 -43.33741 -0.78445 h 3.969266 z m 52.916669,0 -5.29167,18.52083 h 3.96875 v 0.78445 43.33741 1.30896 h 2.64635 v -1.30896 -43.33741 -0.78445 h 3.96823 z m -39.687503,6.61458 -5.291666,18.52083 h 3.96875 v 0.66198 36.85356 1.3007 h 2.64635 v -1.3007 -36.85356 -0.66198 h 3.968229 z m 26.458333,0 -5.29167,18.52083 h 3.96927 v 0.66198 36.85356 1.3007 h 2.6448 v -1.3007 -36.85356 -0.66198 h 3.96927 z m -13.22917,6.61458 -5.29166,18.52084 h 3.96823 v 0.51418 30.36507 1.3224 h 2.64635 v -1.3224 -30.36507 -0.51418 h 3.96875 z" /></g><g
         id="path24"><path
           style="fill:#542513;stroke-linecap:square"
           d="M 122.41402,726.87999 V 690.02644"
           id="path70" /></g><g
         id="path26"><path
           style="fill:#542513;stroke-linecap:square"
           d="M 135.64319,726.87378 V 683.5343"
           id="path72" /></g><g
         id="path28"><path
           style="fill:#542513;stroke-linecap:square"
           d="M 148.87236,726.86537 V 670.54596"
           id="path74" /></g><g
         id="path32"><path
           style="fill:#542513;stroke-linecap:square"
           d="M 95.95568,726.87999 V 690.02644"
           id="path66" /></g><g
         id="path34"><path
           style="fill:#542513;stroke-linecap:square"
           d="M 82.72651,726.87378 V 683.5343"
           id="path64" /></g><g
         id="path36"><path
           style="fill:#542513;stroke-linecap:square"
           d="M 69.49734,726.86537 V 670.54596"
           id="path62" /></g></g></g></svg>
